<svg xmlns="http://www.w3.org/2000/svg" xmlns:xlink="http://www.w3.org/1999/xlink" xmlns:lucid="lucid" width="1309" height="993"><g transform="translate(8.5 8.5)" lucid:page-tab-id="0_0"><path d="M199 587.5v77.73a.28.28 0 0 1-.28.27.28.28 0 0 0-.27.27v78.32" stroke="#333" fill="none"/><path d="M189 587.5h20M199 567.5v20" stroke="#333" fill="#fff"/><path d="M188.45 763.28l10-20 10 20" stroke="#333" fill="#fff" fill-opacity="0"/><path d="M198.45 763.28v-20" stroke="#333" fill="#fff"/><path d="M59 404a5 5 0 0 1 5-5h270a5 5 0 0 1 5 5v158a5 5 0 0 1-5 5H64a5 5 0 0 1-5-5z" fill="#fff"/><path d="M59 439v-35a5 5 0 0 1 5-5h270a5 5 0 0 1 5 5v35" fill="#dedeff"/><path d="M59 404a5 5 0 0 1 5-5h270a5 5 0 0 1 5 5v158a5 5 0 0 1-5 5H64a5 5 0 0 1-5-5zM59 439h280M199 439v128" stroke="#282c33" fill="none"/><use xlink:href="#a" transform="matrix(1,0,0,1,69,399) translate(0 23.6)"/><use xlink:href="#b" transform="matrix(1,0,0,1,64,441.5) translate(0 17.1)"/><use xlink:href="#c" transform="matrix(1,0,0,1,204,441.5) translate(0 17.1)"/><use xlink:href="#d" transform="matrix(1,0,0,1,64,473.5) translate(0 17.1)"/><use xlink:href="#e" transform="matrix(1,0,0,1,204,473.5) translate(0 17.1)"/><use xlink:href="#f" transform="matrix(1,0,0,1,64,505.5) translate(0 17.1)"/><use xlink:href="#g" transform="matrix(1,0,0,1,64,505.5) translate(82.85000000000001 17.1)"/><use xlink:href="#h" transform="matrix(1,0,0,1,204,505.5) translate(0 17.1)"/><use xlink:href="#i" transform="matrix(1,0,0,1,64,537.5) translate(0 17.1)"/><use xlink:href="#h" transform="matrix(1,0,0,1,204,537.5) translate(0 17.1)"/><path d="M12 81a5 5 0 0 1 5-5h270a5 5 0 0 1 5 5v158a5 5 0 0 1-5 5H17a5 5 0 0 1-5-5z" fill="#fff"/><path d="M12 116V81a5 5 0 0 1 5-5h270a5 5 0 0 1 5 5v35" fill="#dedeff"/><path d="M12 81a5 5 0 0 1 5-5h270a5 5 0 0 1 5 5v158a5 5 0 0 1-5 5H17a5 5 0 0 1-5-5zM12 116h280M152 116v128" stroke="#282c33" fill="none"/><use xlink:href="#j" transform="matrix(1,0,0,1,22,76) translate(0 23.6)"/><use xlink:href="#b" transform="matrix(1,0,0,1,17,118.5) translate(0 17.1)"/><use xlink:href="#c" transform="matrix(1,0,0,1,157,118.5) translate(0 17.1)"/><use xlink:href="#k" transform="matrix(1,0,0,1,17,150.5) translate(0 17.1)"/><use xlink:href="#l" transform="matrix(1,0,0,1,157,150.5) translate(0 17.1)"/><use xlink:href="#m" transform="matrix(1,0,0,1,17,182.5) translate(0 17.1)"/><use xlink:href="#l" transform="matrix(1,0,0,1,157,182.5) translate(0 17.1)"/><use xlink:href="#n" transform="matrix(1,0,0,1,17,214.5) translate(0 17.1)"/><use xlink:href="#o" transform="matrix(1,0,0,1,17,214.5) translate(49.900000000000006 17.1)"/><use xlink:href="#p" transform="matrix(1,0,0,1,17,214.5) translate(79.9 17.1)"/><use xlink:href="#q" transform="matrix(1,0,0,1,157,214.5) translate(0 17.1)"/><path d="M112 769a5 5 0 0 1 5-5h250a5 5 0 0 1 5 5v190a5 5 0 0 1-5 5H117a5 5 0 0 1-5-5z" fill="#fff"/><path d="M112 804v-35a5 5 0 0 1 5-5h250a5 5 0 0 1 5 5v35" fill="#dedeff"/><path d="M112 769a5 5 0 0 1 5-5h250a5 5 0 0 1 5 5v190a5 5 0 0 1-5 5H117a5 5 0 0 1-5-5zM112 804h260M250.28 804v160" stroke="#282c33" fill="none"/><use xlink:href="#r" transform="matrix(1,0,0,1,122,764) translate(0 23.6)"/><use xlink:href="#b" transform="matrix(1,0,0,1,117,806.5) translate(0 17.1)"/><use xlink:href="#c" transform="matrix(1,0,0,1,255.27983457586146,806.5) translate(0 17.1)"/><use xlink:href="#s" transform="matrix(1,0,0,1,117,838.5) translate(0 17.1)"/><use xlink:href="#g" transform="matrix(1,0,0,1,117,838.5) translate(50.900000000000006 17.1)"/><use xlink:href="#h" transform="matrix(1,0,0,1,255.27983457586146,838.5) translate(0 17.1)"/><use xlink:href="#t" transform="matrix(1,0,0,1,117,870.5) translate(0 17.1)"/><use xlink:href="#u" transform="matrix(1,0,0,1,255.27983457586146,870.5) translate(0 17.1)"/><use xlink:href="#v" transform="matrix(1,0,0,1,117,902.5) translate(0 17.1)"/><use xlink:href="#h" transform="matrix(1,0,0,1,255.27983457586146,902.5) translate(0 17.1)"/><use xlink:href="#w" transform="matrix(1,0,0,1,117,934.5) translate(0 17.1)"/><use xlink:href="#x" transform="matrix(1,0,0,1,117,934.5) translate(49.95 17.1)"/><use xlink:href="#h" transform="matrix(1,0,0,1,255.27983457586146,934.5) translate(0 17.1)"/><path d="M658.67 404a5 5 0 0 1 5-5h270a5 5 0 0 1 5 5v190a5 5 0 0 1-5 5h-270a5 5 0 0 1-5-5z" fill="#fff"/><path d="M658.67 439v-35a5 5 0 0 1 5-5h270a5 5 0 0 1 5 5v35" fill="#cfe4ff"/><path d="M658.67 404a5 5 0 0 1 5-5h270a5 5 0 0 1 5 5v190a5 5 0 0 1-5 5h-270a5 5 0 0 1-5-5zM658.67 439h280M796.95 439v160" stroke="#282c33" fill="none"/><use xlink:href="#y" transform="matrix(1,0,0,1,668.6666663580163,399) translate(0 23.6)"/><use xlink:href="#b" transform="matrix(1,0,0,1,663.6666663580163,441.5) translate(0 17.1)"/><use xlink:href="#c" transform="matrix(1,0,0,1,801.9465009338778,441.5) translate(0 17.1)"/><use xlink:href="#m" transform="matrix(1,0,0,1,663.6666663580163,473.5) translate(0 17.1)"/><use xlink:href="#l" transform="matrix(1,0,0,1,801.9465009338778,473.5) translate(0 17.1)"/><use xlink:href="#z" transform="matrix(1,0,0,1,663.6666663580163,505.5) translate(0 17.1)"/><use xlink:href="#A" transform="matrix(1,0,0,1,801.9465009338778,505.5) translate(0 17.1)"/><use xlink:href="#B" transform="matrix(1,0,0,1,663.6666663580163,537.5) translate(0 17.1)"/><use xlink:href="#u" transform="matrix(1,0,0,1,801.9465009338778,537.5) translate(0 17.1)"/><use xlink:href="#w" transform="matrix(1,0,0,1,663.6666663580163,569.5) translate(0 17.1)"/><use xlink:href="#g" transform="matrix(1,0,0,1,663.6666663580163,569.5) translate(49.95 17.1)"/><use xlink:href="#h" transform="matrix(1,0,0,1,801.9465009338778,569.5) translate(0 17.1)"/><path d="M732 145a5 5 0 0 1 5-5h270a5 5 0 0 1 5 5v94a5 5 0 0 1-5 5H737a5 5 0 0 1-5-5z" fill="#fff"/><path d="M732 180v-35a5 5 0 0 1 5-5h270a5 5 0 0 1 5 5v35" fill="#dedeff"/><path d="M732 145a5 5 0 0 1 5-5h270a5 5 0 0 1 5 5v94a5 5 0 0 1-5 5H737a5 5 0 0 1-5-5zM732 180h280M872 180v64" stroke="#282c33" fill="none"/><use xlink:href="#C" transform="matrix(1,0,0,1,742,140) translate(0 23.6)"/><use xlink:href="#b" transform="matrix(1,0,0,1,737,182.5) translate(0 17.1)"/><use xlink:href="#c" transform="matrix(1,0,0,1,877,182.5) translate(0 17.1)"/><use xlink:href="#m" transform="matrix(1,0,0,1,737,214.5) translate(0 17.1)"/><use xlink:href="#l" transform="matrix(1,0,0,1,877,214.5) translate(0 17.1)"/><path d="M798.67 619.5V702a6 6 0 0 1-6 6H291.55a6 6 0 0 0-6 6v30.1" stroke="#3a414a" fill="none"/><path d="M788.67 619.5h20M798.67 599.5v20" stroke="#3a414a" fill="#fff"/><path d="M275.55 763.28l10-20 10 20" stroke="#3a414a" fill="#fff" fill-opacity="0"/><path d="M285.55 763.28v-20" stroke="#3a414a" fill="#fff"/><path d="M152 264.5v56.97a.03.03 0 0 0 .03.03.03.03 0 0 1 .03.03v57.56" stroke="#3a414a" fill="none"/><path d="M142 264.5h20M152 244.5v20" stroke="#3a414a" fill="#fff"/><path d="M142.06 398.28l10-20 10 20" stroke="#3a414a" fill="#fff" fill-opacity="0"/><path d="M152.06 398.28v-20" stroke="#3a414a" fill="#fff"/><path d="M1000 365a5 5 0 0 1 5-5h270a5 5 0 0 1 5 5v286a5 5 0 0 1-5 5h-270a5 5 0 0 1-5-5z" fill="#fff"/><path d="M1000 400v-35a5 5 0 0 1 5-5h270a5 5 0 0 1 5 5v35" fill="#dedeff"/><path d="M1000 365a5 5 0 0 1 5-5h270a5 5 0 0 1 5 5v286a5 5 0 0 1-5 5h-270a5 5 0 0 1-5-5zM1000 400h280M1140 400v256" stroke="#282c33" fill="none"/><use xlink:href="#D" transform="matrix(1,0,0,1,1010,360) translate(0 23.6)"/><use xlink:href="#b" transform="matrix(1,0,0,1,1005,402.5) translate(0 17.1)"/><use xlink:href="#c" transform="matrix(1,0,0,1,1145,402.5) translate(0 17.1)"/><use xlink:href="#m" transform="matrix(1,0,0,1,1005,434.5) translate(0 17.1)"/><use xlink:href="#l" transform="matrix(1,0,0,1,1145,434.5) translate(0 17.1)"/><use xlink:href="#E" transform="matrix(1,0,0,1,1005,466.5) translate(0 17.1)"/><use xlink:href="#F" transform="matrix(1,0,0,1,1145,466.5) translate(0 17.1)"/><use xlink:href="#G" transform="matrix(1,0,0,1,1005,498.5) translate(0 17.1)"/><use xlink:href="#H" transform="matrix(1,0,0,1,1005,498.5) translate(57.9 17.1)"/><use xlink:href="#A" transform="matrix(1,0,0,1,1145,498.5) translate(0 17.1)"/><use xlink:href="#I" transform="matrix(1,0,0,1,1005,530.5) translate(0 17.1)"/><use xlink:href="#J" transform="matrix(1,0,0,1,1145,530.5) translate(0 17.1)"/><use xlink:href="#w" transform="matrix(1,0,0,1,1005,562.5) translate(0 17.1)"/><use xlink:href="#g" transform="matrix(1,0,0,1,1005,562.5) translate(49.95 17.1)"/><use xlink:href="#h" transform="matrix(1,0,0,1,1145,562.5) translate(0 17.1)"/><use xlink:href="#K" transform="matrix(1,0,0,1,1005,594.5) translate(0 17.1)"/><use xlink:href="#L" transform="matrix(1,0,0,1,1145,594.5) translate(0 17.1)"/><use xlink:href="#M" transform="matrix(1,0,0,1,1005,626.5) translate(0 17.1)"/><use xlink:href="#L" transform="matrix(1,0,0,1,1145,626.5) translate(0 17.1)"/><path d="M372 17a5 5 0 0 1 5-5h270a5 5 0 0 1 5 5v222a5 5 0 0 1-5 5H377a5 5 0 0 1-5-5z" fill="#fff"/><path d="M372 52V17a5 5 0 0 1 5-5h270a5 5 0 0 1 5 5v35" fill="#dedeff"/><path d="M372 17a5 5 0 0 1 5-5h270a5 5 0 0 1 5 5v222a5 5 0 0 1-5 5H377a5 5 0 0 1-5-5zM372 52h280M512 52v192" stroke="#282c33" fill="none"/><use xlink:href="#N" transform="matrix(1,0,0,1,382,12) translate(0 23.6)"/><use xlink:href="#b" transform="matrix(1,0,0,1,377,54.5) translate(0 17.1)"/><use xlink:href="#c" transform="matrix(1,0,0,1,517,54.5) translate(0 17.1)"/><use xlink:href="#m" transform="matrix(1,0,0,1,377,86.5) translate(0 17.1)"/><use xlink:href="#l" transform="matrix(1,0,0,1,517,86.5) translate(0 17.1)"/><use xlink:href="#O" transform="matrix(1,0,0,1,377,118.5) translate(0 17.1)"/><use xlink:href="#l" transform="matrix(1,0,0,1,517,118.5) translate(0 17.1)"/><use xlink:href="#P" transform="matrix(1,0,0,1,377,150.5) translate(0 17.1)"/><use xlink:href="#Q" transform="matrix(1,0,0,1,377,150.5) translate(36 17.1)"/><use xlink:href="#u" transform="matrix(1,0,0,1,517,150.5) translate(0 17.1)"/><use xlink:href="#R" transform="matrix(1,0,0,1,377,182.5) translate(0 17.1)"/><use xlink:href="#S" transform="matrix(1,0,0,1,377,182.5) translate(53.900000000000006 17.1)"/><use xlink:href="#l" transform="matrix(1,0,0,1,517,182.5) translate(0 17.1)"/><use xlink:href="#T" transform="matrix(1,0,0,1,377,214.5) translate(0 17.1)"/><use xlink:href="#L" transform="matrix(1,0,0,1,517,214.5) translate(0 17.1)"/><path d="M512 264.5V294a6 6 0 0 1-6 6H251.94a6 6 0 0 0-6 6v73.1" stroke="#3a414a" fill="none"/><path d="M502 264.5h20M512 244.5v20" stroke="#3a414a" fill="#fff"/><path d="M235.94 398.28l10-20 10 20" stroke="#3a414a" fill="#fff" fill-opacity="0"/><path d="M245.94 398.28v-20" stroke="#3a414a" fill="#fff"/><path d="M920 264.5V296a6 6 0 0 0 6 6h208a6 6 0 0 1 6 6v32.1" stroke="#3a414a" fill="none"/><path d="M910 264.5h20M920 244.5v20" stroke="#3a414a" fill="#fff"/><path d="M1130 359.28l10-20 10 20" stroke="#3a414a" fill="#fff" fill-opacity="0"/><path d="M1140 359.28v-20" stroke="#3a414a" fill="#fff"/><path d="M798.67 264.5v114.6" stroke="#3a414a" fill="none"/><path d="M788.67 264.5h20M798.67 244.5v20" stroke="#3a414a" fill="#fff"/><path d="M788.67 398.28l10-20 10 20" stroke="#3a414a" fill="#fff" fill-opacity="0"/><path d="M798.67 398.28v-20" stroke="#3a414a" fill="#fff"/><defs><path fill="#333" d="M140-251c81 0 123 46 123 126C263-46 219 4 140 4 59 4 17-45 17-125s42-126 123-126zm0 227c63 0 89-41 89-101s-29-99-89-99c-61 0-89 39-89 99S79-25 140-24" id="U"/><path fill="#333" d="M114-163C36-179 61-72 57 0H25l-1-190h30c1 12-1 29 2 39 6-27 23-49 58-41v29" id="V"/><path fill="#333" d="M85-194c31 0 48 13 60 33l-1-100h32l1 261h-30c-2-10 0-23-3-31C134-8 116 4 85 4 32 4 16-35 15-94c0-66 23-100 70-100zm9 24c-40 0-46 34-46 75 0 40 6 74 45 74 42 0 51-32 51-76 0-42-9-74-50-73" id="W"/><path fill="#333" d="M100-194c63 0 86 42 84 106H49c0 40 14 67 53 68 26 1 43-12 49-29l28 8c-11 28-37 45-77 45C44 4 14-33 15-96c1-61 26-98 85-98zm52 81c6-60-76-77-97-28-3 7-6 17-6 28h103" id="X"/><path fill="#333" d="M135-143c-3-34-86-38-87 0 15 53 115 12 119 90S17 21 10-45l28-5c4 36 97 45 98 0-10-56-113-15-118-90-4-57 82-63 122-42 12 7 21 19 24 35" id="Y"/><g id="a"><use transform="matrix(0.05,0,0,0.05,0,0)" xlink:href="#U"/><use transform="matrix(0.05,0,0,0.05,14,0)" xlink:href="#V"/><use transform="matrix(0.05,0,0,0.05,19.95,0)" xlink:href="#W"/><use transform="matrix(0.05,0,0,0.05,29.950000000000003,0)" xlink:href="#X"/><use transform="matrix(0.05,0,0,0.05,39.95,0)" xlink:href="#V"/><use transform="matrix(0.05,0,0,0.05,45.900000000000006,0)" xlink:href="#Y"/></g><path fill="#333" d="M33 0v-248h34V0H33" id="Z"/><path fill="#333" d="M30-248c118-7 216 8 213 122C240-48 200 0 122 0H30v-248zM63-27c89 8 146-16 146-99s-60-101-146-95v194" id="aa"/><g id="b"><use transform="matrix(0.05,0,0,0.05,0,0)" xlink:href="#Z"/><use transform="matrix(0.05,0,0,0.05,5,0)" xlink:href="#aa"/></g><path fill="#333" d="M30-248c87 1 191-15 191 75 0 78-77 80-158 76V0H30v-248zm33 125c57 0 124 11 124-50 0-59-68-47-124-48v98" id="ab"/><path fill="#333" d="M194 0L95-120 63-95V0H30v-248h33v124l119-124h40L117-140 236 0h-42" id="ac"/><g id="c"><use transform="matrix(0.05,0,0,0.05,0,0)" xlink:href="#ab"/><use transform="matrix(0.05,0,0,0.05,12,0)" xlink:href="#ac"/></g><path fill="#333" d="M212-179c-10-28-35-45-73-45-59 0-87 40-87 99 0 60 29 101 89 101 43 0 62-24 78-52l27 14C228-24 195 4 139 4 59 4 22-46 18-125c-6-104 99-153 187-111 19 9 31 26 39 46" id="ad"/><path fill="#333" d="M141-36C126-15 110 5 73 4 37 3 15-17 15-53c-1-64 63-63 125-63 3-35-9-54-41-54-24 1-41 7-42 31l-33-3c5-37 33-52 76-52 45 0 72 20 72 64v82c-1 20 7 32 28 27v20c-31 9-61-2-59-35zM48-53c0 20 12 33 32 33 41-3 63-29 60-74-43 2-92-5-92 41" id="ae"/><path fill="#333" d="M59-47c-2 24 18 29 38 22v24C64 9 27 4 27-40v-127H5v-23h24l9-43h21v43h35v23H59v120" id="af"/><g id="d"><use transform="matrix(0.05,0,0,0.05,0,0)" xlink:href="#ad"/><use transform="matrix(0.05,0,0,0.05,12.950000000000001,0)" xlink:href="#V"/><use transform="matrix(0.05,0,0,0.05,18.900000000000002,0)" xlink:href="#X"/><use transform="matrix(0.05,0,0,0.05,28.900000000000002,0)" xlink:href="#ae"/><use transform="matrix(0.05,0,0,0.05,38.900000000000006,0)" xlink:href="#af"/><use transform="matrix(0.05,0,0,0.05,43.900000000000006,0)" xlink:href="#X"/><use transform="matrix(0.05,0,0,0.05,53.900000000000006,0)" xlink:href="#W"/></g><path fill="#333" d="M24-231v-30h32v30H24zM24 0v-190h32V0H24" id="ag"/><path fill="#333" d="M210-169c-67 3-38 105-44 169h-31v-121c0-29-5-50-35-48C34-165 62-65 56 0H25l-1-190h30c1 10-1 24 2 32 10-44 99-50 107 0 11-21 27-35 58-36 85-2 47 119 55 194h-31v-121c0-29-5-49-35-48" id="ah"/><path fill="#333" d="M115-194c55 1 70 41 70 98S169 2 115 4C84 4 66-9 55-30l1 105H24l-1-265h31l2 30c10-21 28-34 59-34zm-8 174c40 0 45-34 45-75s-6-73-45-74c-42 0-51 32-51 76 0 43 10 73 51 73" id="ai"/><g id="e"><use transform="matrix(0.05,0,0,0.05,0,0)" xlink:href="#af"/><use transform="matrix(0.05,0,0,0.05,5,0)" xlink:href="#ag"/><use transform="matrix(0.05,0,0,0.05,8.95,0)" xlink:href="#ah"/><use transform="matrix(0.05,0,0,0.05,23.9,0)" xlink:href="#X"/><use transform="matrix(0.05,0,0,0.05,33.9,0)" xlink:href="#Y"/><use transform="matrix(0.05,0,0,0.05,42.9,0)" xlink:href="#af"/><use transform="matrix(0.05,0,0,0.05,47.9,0)" xlink:href="#ae"/><use transform="matrix(0.05,0,0,0.05,57.900000000000006,0)" xlink:href="#ah"/><use transform="matrix(0.05,0,0,0.05,72.85,0)" xlink:href="#ai"/></g><path fill="#333" d="M84 4C-5 8 30-112 23-190h32v120c0 31 7 50 39 49 72-2 45-101 50-169h31l1 190h-30c-1-10 1-25-2-33-11 22-28 36-60 37" id="aj"/><path fill="#333" d="M100-194c62-1 85 37 85 99 1 63-27 99-86 99S16-35 15-95c0-66 28-99 85-99zM99-20c44 1 53-31 53-75 0-43-8-75-51-75s-53 32-53 75 10 74 51 75" id="ak"/><g id="f"><use transform="matrix(0.05,0,0,0.05,0,0)" xlink:href="#ad"/><use transform="matrix(0.05,0,0,0.05,12.950000000000001,0)" xlink:href="#aj"/><use transform="matrix(0.05,0,0,0.05,22.950000000000003,0)" xlink:href="#Y"/><use transform="matrix(0.05,0,0,0.05,31.950000000000003,0)" xlink:href="#af"/><use transform="matrix(0.05,0,0,0.05,36.95,0)" xlink:href="#ak"/><use transform="matrix(0.05,0,0,0.05,46.95,0)" xlink:href="#ah"/><use transform="matrix(0.05,0,0,0.05,61.900000000000006,0)" xlink:href="#X"/><use transform="matrix(0.05,0,0,0.05,71.9,0)" xlink:href="#V"/></g><g id="g"><use transform="matrix(0.05,0,0,0.05,0,0)" xlink:href="#Z"/><use transform="matrix(0.05,0,0,0.05,5,0)" xlink:href="#aa"/></g><path fill="#333" d="M117-194c89-4 53 116 60 194h-32v-121c0-31-8-49-39-48C34-167 62-67 57 0H25l-1-190h30c1 10-1 24 2 32 11-22 29-35 61-36" id="al"/><g id="h"><use transform="matrix(0.05,0,0,0.05,0,0)" xlink:href="#ag"/><use transform="matrix(0.05,0,0,0.05,3.95,0)" xlink:href="#al"/><use transform="matrix(0.05,0,0,0.05,13.949999999999998,0)" xlink:href="#af"/></g><path fill="#333" d="M106-169C34-169 62-67 57 0H25v-261h32l-1 103c12-21 28-36 61-36 89 0 53 116 60 194h-32v-121c2-32-8-49-39-48" id="am"/><g id="i"><use transform="matrix(0.05,0,0,0.05,0,0)" xlink:href="#ad"/><use transform="matrix(0.05,0,0,0.05,12.950000000000001,0)" xlink:href="#ae"/><use transform="matrix(0.05,0,0,0.05,22.950000000000003,0)" xlink:href="#Y"/><use transform="matrix(0.05,0,0,0.05,31.950000000000003,0)" xlink:href="#am"/><use transform="matrix(0.05,0,0,0.05,41.95,0)" xlink:href="#ag"/><use transform="matrix(0.05,0,0,0.05,45.900000000000006,0)" xlink:href="#X"/><use transform="matrix(0.05,0,0,0.05,55.900000000000006,0)" xlink:href="#V"/></g><g id="j"><use transform="matrix(0.05,0,0,0.05,0,0)" xlink:href="#ab"/><use transform="matrix(0.05,0,0,0.05,12,0)" xlink:href="#ae"/><use transform="matrix(0.05,0,0,0.05,22,0)" xlink:href="#af"/><use transform="matrix(0.05,0,0,0.05,27,0)" xlink:href="#V"/><use transform="matrix(0.05,0,0,0.05,32.95,0)" xlink:href="#ak"/><use transform="matrix(0.05,0,0,0.05,42.95,0)" xlink:href="#al"/><use transform="matrix(0.05,0,0,0.05,52.95,0)" xlink:href="#Y"/></g><path fill="#333" d="M30 0v-248h187v28H63v79h144v27H63v87h162V0H30" id="an"/><path fill="#333" d="M24 0v-261h32V0H24" id="ao"/><g id="k"><use transform="matrix(0.05,0,0,0.05,0,0)" xlink:href="#an"/><use transform="matrix(0.05,0,0,0.05,12,0)" xlink:href="#ah"/><use transform="matrix(0.05,0,0,0.05,26.950000000000003,0)" xlink:href="#ae"/><use transform="matrix(0.05,0,0,0.05,36.95,0)" xlink:href="#ag"/><use transform="matrix(0.05,0,0,0.05,40.900000000000006,0)" xlink:href="#ao"/></g><path fill="#333" d="M108 0H70L1-190h34L89-25l56-165h34" id="ap"/><path fill="#333" d="M96-169c-40 0-48 33-48 73s9 75 48 75c24 0 41-14 43-38l32 2c-6 37-31 61-74 61-59 0-76-41-82-99-10-93 101-131 147-64 4 7 5 14 7 22l-32 3c-4-21-16-35-41-35" id="aq"/><path fill="#333" d="M87 75C49 33 22-17 22-94c0-76 28-126 65-167h31c-38 41-64 92-64 168S80 34 118 75H87" id="ar"/><path fill="#333" d="M54-142c48-35 137-8 131 61C196 18 31 33 14-55l32-4c7 23 22 37 52 37 35-1 51-22 54-58 4-55-73-65-99-34H22l8-134h141v27H59" id="as"/><path fill="#333" d="M101-251c68 0 85 55 85 127S166 4 100 4C33 4 14-52 14-124c0-73 17-127 87-127zm-1 229c47 0 54-49 54-102s-4-102-53-102c-51 0-55 48-55 102 0 53 5 102 54 102" id="at"/><path fill="#333" d="M33-261c38 41 65 92 65 168S71 34 33 75H2C39 34 66-17 66-93S39-220 2-261h31" id="au"/><g id="l"><use transform="matrix(0.05,0,0,0.05,0,0)" xlink:href="#ap"/><use transform="matrix(0.05,0,0,0.05,9,0)" xlink:href="#ae"/><use transform="matrix(0.05,0,0,0.05,19,0)" xlink:href="#V"/><use transform="matrix(0.05,0,0,0.05,24.95,0)" xlink:href="#aq"/><use transform="matrix(0.05,0,0,0.05,33.95,0)" xlink:href="#am"/><use transform="matrix(0.05,0,0,0.05,43.95,0)" xlink:href="#ae"/><use transform="matrix(0.05,0,0,0.05,53.95,0)" xlink:href="#V"/><use transform="matrix(0.05,0,0,0.05,59.900000000000006,0)" xlink:href="#ar"/><use transform="matrix(0.05,0,0,0.05,65.85000000000001,0)" xlink:href="#as"/><use transform="matrix(0.05,0,0,0.05,75.85000000000001,0)" xlink:href="#at"/><use transform="matrix(0.05,0,0,0.05,85.85000000000001,0)" xlink:href="#au"/></g><path fill="#333" d="M190 0L58-211 59 0H30v-248h39L202-35l-2-213h31V0h-41" id="av"/><g id="m"><use transform="matrix(0.05,0,0,0.05,0,0)" xlink:href="#av"/><use transform="matrix(0.05,0,0,0.05,12.950000000000001,0)" xlink:href="#ae"/><use transform="matrix(0.05,0,0,0.05,22.950000000000003,0)" xlink:href="#ah"/><use transform="matrix(0.05,0,0,0.05,37.900000000000006,0)" xlink:href="#X"/></g><path fill="#333" d="M206 0h-36l-40-164L89 0H53L-1-190h32L70-26l43-164h34l41 164 42-164h31" id="aw"/><g id="n"><use transform="matrix(0.05,0,0,0.05,0,0)" xlink:href="#av"/><use transform="matrix(0.05,0,0,0.05,12.950000000000001,0)" xlink:href="#X"/><use transform="matrix(0.05,0,0,0.05,22.950000000000003,0)" xlink:href="#aw"/><use transform="matrix(0.05,0,0,0.05,35.900000000000006,0)" xlink:href="#Y"/></g><g id="o"><use transform="matrix(0.05,0,0,0.05,0,0)" xlink:href="#ak"/><use transform="matrix(0.05,0,0,0.05,10,0)" xlink:href="#ai"/><use transform="matrix(0.05,0,0,0.05,20,0)" xlink:href="#af"/></g><g id="p"><use transform="matrix(0.05,0,0,0.05,0,0)" xlink:href="#ag"/><use transform="matrix(0.05,0,0,0.05,3.95,0)" xlink:href="#al"/></g><path fill="#333" d="M115-194c53 0 69 39 70 98 0 66-23 100-70 100C84 3 66-7 56-30L54 0H23l1-261h32v101c10-23 28-34 59-34zm-8 174c40 0 45-34 45-75 0-40-5-75-45-74-42 0-51 32-51 76 0 43 10 73 51 73" id="ax"/><g id="q"><use transform="matrix(0.05,0,0,0.05,0,0)" xlink:href="#ax"/><use transform="matrix(0.05,0,0,0.05,10,0)" xlink:href="#ak"/><use transform="matrix(0.05,0,0,0.05,20,0)" xlink:href="#ak"/><use transform="matrix(0.05,0,0,0.05,30,0)" xlink:href="#ao"/></g><path fill="#333" d="M-5 72V49h209v23H-5" id="ay"/><g id="r"><use transform="matrix(0.05,0,0,0.05,0,0)" xlink:href="#U"/><use transform="matrix(0.05,0,0,0.05,14,0)" xlink:href="#V"/><use transform="matrix(0.05,0,0,0.05,19.95,0)" xlink:href="#W"/><use transform="matrix(0.05,0,0,0.05,29.950000000000003,0)" xlink:href="#X"/><use transform="matrix(0.05,0,0,0.05,39.95,0)" xlink:href="#V"/><use transform="matrix(0.05,0,0,0.05,45.900000000000006,0)" xlink:href="#ay"/><use transform="matrix(0.05,0,0,0.05,55.900000000000006,0)" xlink:href="#ag"/><use transform="matrix(0.05,0,0,0.05,59.85,0)" xlink:href="#af"/><use transform="matrix(0.05,0,0,0.05,64.85000000000001,0)" xlink:href="#X"/><use transform="matrix(0.05,0,0,0.05,74.85000000000001,0)" xlink:href="#ah"/></g><g id="s"><use transform="matrix(0.05,0,0,0.05,0,0)" xlink:href="#U"/><use transform="matrix(0.05,0,0,0.05,14,0)" xlink:href="#V"/><use transform="matrix(0.05,0,0,0.05,19.95,0)" xlink:href="#W"/><use transform="matrix(0.05,0,0,0.05,29.950000000000003,0)" xlink:href="#X"/><use transform="matrix(0.05,0,0,0.05,39.95,0)" xlink:href="#V"/></g><g id="t"><use transform="matrix(0.05,0,0,0.05,0,0)" xlink:href="#ab"/><use transform="matrix(0.05,0,0,0.05,12,0)" xlink:href="#V"/><use transform="matrix(0.05,0,0,0.05,17.95,0)" xlink:href="#ag"/><use transform="matrix(0.05,0,0,0.05,21.9,0)" xlink:href="#aq"/><use transform="matrix(0.05,0,0,0.05,30.899999999999995,0)" xlink:href="#X"/></g><g id="u"><use transform="matrix(0.05,0,0,0.05,0,0)" xlink:href="#W"/><use transform="matrix(0.05,0,0,0.05,10,0)" xlink:href="#X"/><use transform="matrix(0.05,0,0,0.05,20,0)" xlink:href="#aq"/><use transform="matrix(0.05,0,0,0.05,29,0)" xlink:href="#ag"/><use transform="matrix(0.05,0,0,0.05,32.95,0)" xlink:href="#ah"/><use transform="matrix(0.05,0,0,0.05,47.900000000000006,0)" xlink:href="#ae"/><use transform="matrix(0.05,0,0,0.05,57.900000000000006,0)" xlink:href="#ao"/></g><path fill="#333" d="M140-251c81 0 123 46 123 126C263-53 228-8 163 1c7 30 30 48 69 40v23c-55 16-95-15-103-61C56-3 17-48 17-125c0-80 42-126 123-126zm0 227c63 0 89-41 89-101s-29-99-89-99c-61 0-89 39-89 99S79-25 140-24" id="az"/><path fill="#333" d="M179-190L93 31C79 59 56 82 12 73V49c39 6 53-20 64-50L1-190h34L92-34l54-156h33" id="aA"/><g id="v"><use transform="matrix(0.05,0,0,0.05,0,0)" xlink:href="#az"/><use transform="matrix(0.05,0,0,0.05,14,0)" xlink:href="#aj"/><use transform="matrix(0.05,0,0,0.05,24,0)" xlink:href="#ae"/><use transform="matrix(0.05,0,0,0.05,34,0)" xlink:href="#al"/><use transform="matrix(0.05,0,0,0.05,44,0)" xlink:href="#af"/><use transform="matrix(0.05,0,0,0.05,49,0)" xlink:href="#ag"/><use transform="matrix(0.05,0,0,0.05,52.95,0)" xlink:href="#af"/><use transform="matrix(0.05,0,0,0.05,57.95,0)" xlink:href="#aA"/></g><path fill="#333" d="M240 0l2-218c-23 76-54 145-80 218h-23L58-218 59 0H30v-248h44l77 211c21-75 51-140 76-211h43V0h-30" id="aB"/><g id="w"><use transform="matrix(0.05,0,0,0.05,0,0)" xlink:href="#aB"/><use transform="matrix(0.05,0,0,0.05,14.950000000000001,0)" xlink:href="#X"/><use transform="matrix(0.05,0,0,0.05,24.950000000000003,0)" xlink:href="#al"/><use transform="matrix(0.05,0,0,0.05,34.95,0)" xlink:href="#aj"/></g><g id="x"><use transform="matrix(0.05,0,0,0.05,0,0)" xlink:href="#ag"/><use transform="matrix(0.05,0,0,0.05,3.95,0)" xlink:href="#af"/><use transform="matrix(0.05,0,0,0.05,8.95,0)" xlink:href="#X"/><use transform="matrix(0.05,0,0,0.05,18.95,0)" xlink:href="#ah"/></g><g id="y"><use transform="matrix(0.05,0,0,0.05,0,0)" xlink:href="#aB"/><use transform="matrix(0.05,0,0,0.05,14.950000000000001,0)" xlink:href="#X"/><use transform="matrix(0.05,0,0,0.05,24.950000000000003,0)" xlink:href="#al"/><use transform="matrix(0.05,0,0,0.05,34.95,0)" xlink:href="#aj"/><use transform="matrix(0.05,0,0,0.05,44.95,0)" xlink:href="#ay"/><use transform="matrix(0.05,0,0,0.05,54.95,0)" xlink:href="#ag"/><use transform="matrix(0.05,0,0,0.05,58.900000000000006,0)" xlink:href="#af"/><use transform="matrix(0.05,0,0,0.05,63.900000000000006,0)" xlink:href="#X"/><use transform="matrix(0.05,0,0,0.05,73.9,0)" xlink:href="#ah"/></g><path fill="#333" d="M233-177c-1 41-23 64-60 70L243 0h-38l-65-103H63V0H30v-248c88 3 205-21 203 71zM63-129c60-2 137 13 137-47 0-61-80-42-137-45v92" id="aC"/><g id="z"><use transform="matrix(0.05,0,0,0.05,0,0)" xlink:href="#aC"/><use transform="matrix(0.05,0,0,0.05,12.950000000000001,0)" xlink:href="#X"/><use transform="matrix(0.05,0,0,0.05,22.950000000000003,0)" xlink:href="#aq"/><use transform="matrix(0.05,0,0,0.05,31.950000000000003,0)" xlink:href="#ag"/><use transform="matrix(0.05,0,0,0.05,35.900000000000006,0)" xlink:href="#ai"/><use transform="matrix(0.05,0,0,0.05,45.900000000000006,0)" xlink:href="#X"/></g><path fill="#333" d="M101-251c82-7 93 87 43 132L82-64C71-53 59-42 53-27h129V0H18c2-99 128-94 128-182 0-28-16-43-45-43s-46 15-49 41l-32-3c6-41 34-60 81-64" id="aD"/><g id="A"><use transform="matrix(0.05,0,0,0.05,0,0)" xlink:href="#ap"/><use transform="matrix(0.05,0,0,0.05,9,0)" xlink:href="#ae"/><use transform="matrix(0.05,0,0,0.05,19,0)" xlink:href="#V"/><use transform="matrix(0.05,0,0,0.05,24.95,0)" xlink:href="#aq"/><use transform="matrix(0.05,0,0,0.05,33.95,0)" xlink:href="#am"/><use transform="matrix(0.05,0,0,0.05,43.95,0)" xlink:href="#ae"/><use transform="matrix(0.05,0,0,0.05,53.95,0)" xlink:href="#V"/><use transform="matrix(0.05,0,0,0.05,59.900000000000006,0)" xlink:href="#ar"/><use transform="matrix(0.05,0,0,0.05,65.85000000000001,0)" xlink:href="#aD"/><use transform="matrix(0.05,0,0,0.05,75.85000000000001,0)" xlink:href="#as"/><use transform="matrix(0.05,0,0,0.05,85.85000000000001,0)" xlink:href="#as"/><use transform="matrix(0.05,0,0,0.05,95.85000000000001,0)" xlink:href="#au"/></g><g id="B"><use transform="matrix(0.05,0,0,0.05,0,0)" xlink:href="#ad"/><use transform="matrix(0.05,0,0,0.05,12.950000000000001,0)" xlink:href="#ak"/><use transform="matrix(0.05,0,0,0.05,22.950000000000003,0)" xlink:href="#Y"/><use transform="matrix(0.05,0,0,0.05,31.950000000000003,0)" xlink:href="#af"/></g><g id="C"><use transform="matrix(0.05,0,0,0.05,0,0)" xlink:href="#aB"/><use transform="matrix(0.05,0,0,0.05,14.950000000000001,0)" xlink:href="#X"/><use transform="matrix(0.05,0,0,0.05,24.950000000000003,0)" xlink:href="#al"/><use transform="matrix(0.05,0,0,0.05,34.95,0)" xlink:href="#aj"/></g><g id="D"><use transform="matrix(0.05,0,0,0.05,0,0)" xlink:href="#an"/><use transform="matrix(0.05,0,0,0.05,12,0)" xlink:href="#ap"/><use transform="matrix(0.05,0,0,0.05,21,0)" xlink:href="#X"/><use transform="matrix(0.05,0,0,0.05,31,0)" xlink:href="#al"/><use transform="matrix(0.05,0,0,0.05,41,0)" xlink:href="#af"/><use transform="matrix(0.05,0,0,0.05,46,0)" xlink:href="#Y"/></g><path fill="#333" d="M30 0v-248h33v221h125V0H30" id="aE"/><g id="E"><use transform="matrix(0.05,0,0,0.05,0,0)" xlink:href="#aE"/><use transform="matrix(0.05,0,0,0.05,10,0)" xlink:href="#ak"/><use transform="matrix(0.05,0,0,0.05,20,0)" xlink:href="#aq"/><use transform="matrix(0.05,0,0,0.05,29,0)" xlink:href="#ae"/><use transform="matrix(0.05,0,0,0.05,39,0)" xlink:href="#af"/><use transform="matrix(0.05,0,0,0.05,44,0)" xlink:href="#ag"/><use transform="matrix(0.05,0,0,0.05,47.95,0)" xlink:href="#ak"/><use transform="matrix(0.05,0,0,0.05,57.95,0)" xlink:href="#al"/></g><path fill="#333" d="M27 0v-27h64v-190l-56 39v-29l58-41h29v221h61V0H27" id="aF"/><path fill="#333" d="M134-131c28 9 52 24 51 62-1 50-34 73-85 73S17-19 16-69c0-36 21-54 49-61-75-25-45-126 34-121 46 3 78 18 79 63 0 33-17 51-44 57zm-34-11c31 1 46-15 46-44 0-28-17-43-47-42-29 0-46 13-45 42 1 28 16 44 46 44zm1 122c35 0 51-18 51-52 0-30-18-46-53-46-33 0-51 17-51 47 0 34 19 51 53 51" id="aG"/><g id="F"><use transform="matrix(0.05,0,0,0.05,0,0)" xlink:href="#ap"/><use transform="matrix(0.05,0,0,0.05,9,0)" xlink:href="#ae"/><use transform="matrix(0.05,0,0,0.05,19,0)" xlink:href="#V"/><use transform="matrix(0.05,0,0,0.05,24.95,0)" xlink:href="#aq"/><use transform="matrix(0.05,0,0,0.05,33.95,0)" xlink:href="#am"/><use transform="matrix(0.05,0,0,0.05,43.95,0)" xlink:href="#ae"/><use transform="matrix(0.05,0,0,0.05,53.95,0)" xlink:href="#V"/><use transform="matrix(0.05,0,0,0.05,59.900000000000006,0)" xlink:href="#ar"/><use transform="matrix(0.05,0,0,0.05,65.85000000000001,0)" xlink:href="#aF"/><use transform="matrix(0.05,0,0,0.05,75.85000000000001,0)" xlink:href="#aD"/><use transform="matrix(0.05,0,0,0.05,85.85000000000001,0)" xlink:href="#aG"/><use transform="matrix(0.05,0,0,0.05,95.85000000000001,0)" xlink:href="#au"/></g><g id="G"><use transform="matrix(0.05,0,0,0.05,0,0)" xlink:href="#ab"/><use transform="matrix(0.05,0,0,0.05,12,0)" xlink:href="#V"/><use transform="matrix(0.05,0,0,0.05,17.95,0)" xlink:href="#ak"/><use transform="matrix(0.05,0,0,0.05,27.950000000000003,0)" xlink:href="#ah"/><use transform="matrix(0.05,0,0,0.05,42.9,0)" xlink:href="#ak"/></g><path fill="#333" d="M232-93c-1 65-40 97-104 97C67 4 28-28 28-90v-158h33c8 89-33 224 67 224 102 0 64-133 71-224h33v155" id="aH"/><g id="H"><use transform="matrix(0.05,0,0,0.05,0,0)" xlink:href="#aH"/><use transform="matrix(0.05,0,0,0.05,12.950000000000001,0)" xlink:href="#aC"/><use transform="matrix(0.05,0,0,0.05,25.900000000000002,0)" xlink:href="#aE"/></g><path fill="#333" d="M177-190C167-65 218 103 67 71c-23-6-38-20-44-43l32-5c15 47 100 32 89-28v-30C133-14 115 1 83 1 29 1 15-40 15-95c0-56 16-97 71-98 29-1 48 16 59 35 1-10 0-23 2-32h30zM94-22c36 0 50-32 50-73 0-42-14-75-50-75-39 0-46 34-46 75s6 73 46 73" id="aI"/><g id="I"><use transform="matrix(0.05,0,0,0.05,0,0)" xlink:href="#aC"/><use transform="matrix(0.05,0,0,0.05,12.950000000000001,0)" xlink:href="#X"/><use transform="matrix(0.05,0,0,0.05,22.950000000000003,0)" xlink:href="#ai"/><use transform="matrix(0.05,0,0,0.05,32.95,0)" xlink:href="#X"/><use transform="matrix(0.05,0,0,0.05,42.95,0)" xlink:href="#ae"/><use transform="matrix(0.05,0,0,0.05,52.95,0)" xlink:href="#af"/><use transform="matrix(0.05,0,0,0.05,57.95,0)" xlink:href="#ag"/><use transform="matrix(0.05,0,0,0.05,61.900000000000006,0)" xlink:href="#al"/><use transform="matrix(0.05,0,0,0.05,71.9,0)" xlink:href="#aI"/></g><g id="J"><use transform="matrix(0.05,0,0,0.05,0,0)" xlink:href="#ap"/><use transform="matrix(0.05,0,0,0.05,9,0)" xlink:href="#ae"/><use transform="matrix(0.05,0,0,0.05,19,0)" xlink:href="#V"/><use transform="matrix(0.05,0,0,0.05,24.95,0)" xlink:href="#aq"/><use transform="matrix(0.05,0,0,0.05,33.95,0)" xlink:href="#am"/><use transform="matrix(0.05,0,0,0.05,43.95,0)" xlink:href="#ae"/><use transform="matrix(0.05,0,0,0.05,53.95,0)" xlink:href="#V"/><use transform="matrix(0.05,0,0,0.05,59.900000000000006,0)" xlink:href="#ar"/><use transform="matrix(0.05,0,0,0.05,65.85000000000001,0)" xlink:href="#aF"/><use transform="matrix(0.05,0,0,0.05,75.85000000000001,0)" xlink:href="#aD"/><use transform="matrix(0.05,0,0,0.05,85.85000000000001,0)" xlink:href="#au"/></g><path fill="#333" d="M185-189c-5-48-123-54-124 2 14 75 158 14 163 119 3 78-121 87-175 55-17-10-28-26-33-46l33-7c5 56 141 63 141-1 0-78-155-14-162-118-5-82 145-84 179-34 5 7 8 16 11 25" id="aJ"/><g id="K"><use transform="matrix(0.05,0,0,0.05,0,0)" xlink:href="#aJ"/><use transform="matrix(0.05,0,0,0.05,12,0)" xlink:href="#af"/><use transform="matrix(0.05,0,0,0.05,17,0)" xlink:href="#ae"/><use transform="matrix(0.05,0,0,0.05,27,0)" xlink:href="#V"/><use transform="matrix(0.05,0,0,0.05,32.95,0)" xlink:href="#af"/></g><g id="L"><use transform="matrix(0.05,0,0,0.05,0,0)" xlink:href="#aa"/><use transform="matrix(0.05,0,0,0.05,12.950000000000001,0)" xlink:href="#ae"/><use transform="matrix(0.05,0,0,0.05,22.950000000000003,0)" xlink:href="#af"/><use transform="matrix(0.05,0,0,0.05,27.950000000000003,0)" xlink:href="#X"/></g><g id="M"><use transform="matrix(0.05,0,0,0.05,0,0)" xlink:href="#an"/><use transform="matrix(0.05,0,0,0.05,12,0)" xlink:href="#al"/><use transform="matrix(0.05,0,0,0.05,22,0)" xlink:href="#W"/></g><path fill="#333" d="M127-220V0H93v-220H8v-28h204v28h-85" id="aK"/><path fill="#333" d="M143 0L79-87 56-68V0H24v-261h32v163l83-92h37l-77 82L181 0h-38" id="aL"/><g id="N"><use transform="matrix(0.05,0,0,0.05,0,0)" xlink:href="#aK"/><use transform="matrix(0.05,0,0,0.05,10.3,0)" xlink:href="#V"/><use transform="matrix(0.05,0,0,0.05,16.25,0)" xlink:href="#aj"/><use transform="matrix(0.05,0,0,0.05,26.25,0)" xlink:href="#aq"/><use transform="matrix(0.05,0,0,0.05,35.25,0)" xlink:href="#aL"/><use transform="matrix(0.05,0,0,0.05,44.25,0)" xlink:href="#X"/><use transform="matrix(0.05,0,0,0.05,54.25,0)" xlink:href="#V"/><use transform="matrix(0.05,0,0,0.05,60.2,0)" xlink:href="#Y"/></g><path fill="#333" d="M153-248C145-148 188 4 80 4 36 3 13-21 6-62l32-5c4 25 16 42 43 43 27 0 39-20 39-49v-147H72v-28h81" id="aM"/><g id="O"><use transform="matrix(0.05,0,0,0.05,0,0)" xlink:href="#aM"/><use transform="matrix(0.05,0,0,0.05,9,0)" xlink:href="#ak"/><use transform="matrix(0.05,0,0,0.05,19,0)" xlink:href="#ax"/></g><g id="P"><use transform="matrix(0.05,0,0,0.05,0,0)" xlink:href="#ab"/><use transform="matrix(0.05,0,0,0.05,12,0)" xlink:href="#ae"/><use transform="matrix(0.05,0,0,0.05,22,0)" xlink:href="#aA"/></g><g id="Q"><use transform="matrix(0.05,0,0,0.05,0,0)" xlink:href="#V"/><use transform="matrix(0.05,0,0,0.05,5.95,0)" xlink:href="#ae"/><use transform="matrix(0.05,0,0,0.05,15.949999999999998,0)" xlink:href="#af"/><use transform="matrix(0.05,0,0,0.05,20.95,0)" xlink:href="#X"/></g><g id="R"><use transform="matrix(0.05,0,0,0.05,0,0)" xlink:href="#aJ"/><use transform="matrix(0.05,0,0,0.05,12,0)" xlink:href="#ak"/><use transform="matrix(0.05,0,0,0.05,22,0)" xlink:href="#aq"/><use transform="matrix(0.05,0,0,0.05,31,0)" xlink:href="#ag"/><use transform="matrix(0.05,0,0,0.05,34.95,0)" xlink:href="#ae"/><use transform="matrix(0.05,0,0,0.05,44.95,0)" xlink:href="#ao"/></g><g id="S"><use transform="matrix(0.05,0,0,0.05,0,0)" xlink:href="#ah"/><use transform="matrix(0.05,0,0,0.05,14.950000000000001,0)" xlink:href="#X"/><use transform="matrix(0.05,0,0,0.05,24.950000000000003,0)" xlink:href="#W"/><use transform="matrix(0.05,0,0,0.05,34.95,0)" xlink:href="#ag"/><use transform="matrix(0.05,0,0,0.05,38.900000000000006,0)" xlink:href="#ae"/></g><g id="T"><use transform="matrix(0.05,0,0,0.05,0,0)" xlink:href="#aa"/><use transform="matrix(0.05,0,0,0.05,12.950000000000001,0)" xlink:href="#X"/><use transform="matrix(0.05,0,0,0.05,22.950000000000003,0)" xlink:href="#ae"/><use transform="matrix(0.05,0,0,0.05,32.95,0)" xlink:href="#aq"/><use transform="matrix(0.05,0,0,0.05,41.95,0)" xlink:href="#af"/><use transform="matrix(0.05,0,0,0.05,46.95,0)" xlink:href="#ag"/><use transform="matrix(0.05,0,0,0.05,50.900000000000006,0)" xlink:href="#ap"/><use transform="matrix(0.05,0,0,0.05,59.900000000000006,0)" xlink:href="#ae"/><use transform="matrix(0.05,0,0,0.05,69.9,0)" xlink:href="#af"/><use transform="matrix(0.05,0,0,0.05,74.9,0)" xlink:href="#X"/><use transform="matrix(0.05,0,0,0.05,84.9,0)" xlink:href="#W"/></g></defs></g></svg>